<svg width="96" height="127" viewBox="0 0 96 127" fill="none" xmlns="http://www.w3.org/2000/svg">
<g filter="url(#filter0_d_1_59)">
<path d="M19.8936 34.8825L24.2176 27.8414L26.8907 25.7845L32.6299 23.6485L37.3471 24.1231L39.3126 30.9268L37.3471 41.3697L35.303 46.3538L33.1016 51.8126L36.5609 54.2651M60.697 50.9424L68.0872 45.2463V37.4932L62.6625 34.3287L56.6088 30.1357L58.5743 24.1231L60.697 21.1168H65.4142L68.559 22.2244L73.579 24.5187M73.579 24.5187L75.7919 26.813L80.1946 32.0344C80.4829 33.5639 81.0594 36.6704 81.0594 36.8603C81.0594 37.0502 81.4787 39.0491 81.6884 40.0248L82.0815 47.5405L82.9463 52.1291L81.0594 57.1132L76.9712 60.3568L71.6251 62.8093H65.4142L64.1563 64.7871V67.1605L65.4142 68.7428L67.3011 73.4896L68.3231 79.423C68.821 79.6867 69.864 80.2458 70.0527 80.3724C70.2414 80.499 72.5948 81.269 73.7478 81.6382L78.465 84.0907L79.0153 86.9387L79.6443 88.9957L82.1601 91.3691L87.6635 95.562L89 100.309L88.1352 104.581L86.0125 108.695L82.6318 112.73L76.814 113.283L71.232 112.492L64.7852 109.486L62.5053 106.796L60.697 101.337L58.6529 98.4892L56.0585 97.619C50.7753 98.6316 45.5497 98.9112 43.7152 98.4892C42.6932 97.3816 42.0642 104.66 42.6932 106.796C43.3221 108.932 37.3471 115.419 31.6865 115.815C26.5789 116.172 22.2521 116.448 19.8936 112.255C17.535 108.062 18.0853 103.473 19.8936 101.654C21.7018 99.8341 19.5791 92.002 19.8936 89.945C20.2081 87.8881 24.3749 79.9768 25.8686 77.5243C27.0637 75.5623 28.7776 68.4791 29.4851 65.1827V64.3916L25.5542 62.8093L21.7018 60.1986L20.2081 57.3505L16.7488 51.8126L16.1198 48.0943L18.3998 42.1609L19.8936 38.3634L19.5005 34.8825L16.9847 33.2211L12.1889 31.3224L8.49377 27.525L7 22.6991L7.55034 16.7656L11.6385 11.9398L16.9847 9.48725L24.0604 10.1993L26.4976 9.48725L30.5858 7.66766L38.1333 4.34492L42.9291 3L51.1055 3.6329L54.8006 3.94935L62.6625 8.69613L66.0431 7.27209L69.1879 6.48097L74.2196 7.27209L77.2071 8.69613L79.8802 13.9967L82.3174 17.4777L81.0594 21.1168L79.4871 23.6485L73.1975 24.1231L73.579 24.5187Z" stroke="#4599BB" stroke-width="5" shape-rendering="crispEdges"/>
</g>
<defs>
<filter id="filter0_d_1_59" x="0.464844" y="0.473389" width="95.1055" height="126.027" filterUnits="userSpaceOnUse" color-interpolation-filters="sRGB">
<feFlood flood-opacity="0" result="BackgroundImageFix"/>
<feColorMatrix in="SourceAlpha" type="matrix" values="0 0 0 0 0 0 0 0 0 0 0 0 0 0 0 0 0 0 127 0" result="hardAlpha"/>
<feOffset dy="4"/>
<feGaussianBlur stdDeviation="2"/>
<feComposite in2="hardAlpha" operator="out"/>
<feColorMatrix type="matrix" values="0 0 0 0 0.270588 0 0 0 0 0.6 0 0 0 0 0.733333 0 0 0 0.25 0"/>
<feBlend mode="normal" in2="BackgroundImageFix" result="effect1_dropShadow_1_59"/>
<feBlend mode="normal" in="SourceGraphic" in2="effect1_dropShadow_1_59" result="shape"/>
</filter>
</defs>
</svg>
