<svg width="22" height="21" viewBox="0 0 22 21" fill="none" xmlns="http://www.w3.org/2000/svg">
<path d="M2.62003 15.28C2.71816 15.5267 2.91025 15.7242 3.15405 15.8292C3.39785 15.9343 3.67338 15.9381 3.92003 15.84C4.16668 15.7419 4.36425 15.5498 4.46927 15.306C4.57429 15.0622 4.57816 14.7867 4.48003 14.54L3.36003 11.72L10 10.25V15C10 15.2652 10.1054 15.5196 10.2929 15.7071C10.4805 15.8946 10.7348 16 11 16C11.2652 16 11.5196 15.8946 11.7071 15.7071C11.8947 15.5196 12 15.2652 12 15V10.25L18.64 11.72L17.52 14.54C17.4713 14.6621 17.4472 14.7926 17.449 14.9241C17.4507 15.0556 17.4784 15.1854 17.5304 15.3061C17.5825 15.4269 17.6578 15.5362 17.7521 15.6278C17.8464 15.7194 17.9578 15.7915 18.08 15.84C18.1978 15.8866 18.3234 15.9103 18.45 15.91C18.6503 15.9102 18.846 15.8502 19.0118 15.7379C19.1777 15.6256 19.3059 15.4661 19.38 15.28L20.93 11.37C20.9832 11.2348 21.0063 11.0896 20.9977 10.9445C20.9891 10.7994 20.9489 10.658 20.88 10.53C20.8132 10.4025 20.7196 10.2909 20.6057 10.2029C20.4918 10.1149 20.3603 10.0525 20.22 10.02L17 9.31V5C17 4.73478 16.8947 4.48043 16.7071 4.29289C16.5196 4.10536 16.2652 4 16 4H14V1C14 0.734784 13.8947 0.48043 13.7071 0.292893C13.5196 0.105357 13.2652 0 13 0H9.00003C8.73482 0 8.48046 0.105357 8.29292 0.292893C8.10539 0.48043 8.00003 0.734784 8.00003 1V4H6.00003C5.73481 4 5.48046 4.10536 5.29292 4.29289C5.10539 4.48043 5.00003 4.73478 5.00003 5V9.31L1.78003 10C1.63979 10.0325 1.50823 10.0949 1.39432 10.1829C1.28041 10.2709 1.18685 10.3825 1.12003 10.51C1.05116 10.638 1.01101 10.7794 1.00237 10.9245C0.99374 11.0696 1.01683 11.2148 1.07003 11.35L2.62003 15.28ZM10 2H12V4H10V2ZM7.00003 6H15V8.86L11.22 8H11.12H11H10.88H10.78L7.00003 8.86V6ZM19.71 17.28C19.3592 17.3875 19.0232 17.5387 18.71 17.73C18.3915 17.9163 18.0291 18.0145 17.66 18.0145C17.291 18.0145 16.9286 17.9163 16.61 17.73C15.9173 17.3392 15.1354 17.1339 14.34 17.1339C13.5447 17.1339 12.7628 17.3392 12.07 17.73C11.7471 17.9141 11.3818 18.011 11.01 18.011C10.6383 18.011 10.273 17.9141 9.95003 17.73C9.25668 17.3411 8.47502 17.1368 7.68003 17.1368C6.88504 17.1368 6.10339 17.3411 5.41003 17.73C5.09146 17.9163 4.72907 18.0145 4.36003 18.0145C3.99099 18.0145 3.6286 17.9163 3.31003 17.73C2.99687 17.5387 2.6609 17.3875 2.31003 17.28C2.17697 17.2327 2.0354 17.2141 1.89464 17.2255C1.75388 17.2368 1.61712 17.2778 1.49337 17.3459C1.36961 17.4139 1.26166 17.5073 1.17663 17.6201C1.0916 17.7328 1.03141 17.8623 1.00003 18C0.925377 18.2533 0.953924 18.5258 1.07944 18.7581C1.20496 18.9904 1.41727 19.1636 1.67003 19.24C1.87139 19.2946 2.0635 19.3788 2.24003 19.49C2.84674 19.846 3.5366 20.0357 4.24003 20.04C4.97063 20.0401 5.68826 19.8469 6.32003 19.48C6.71201 19.2638 7.15237 19.1504 7.60003 19.1504C8.04769 19.1504 8.48806 19.2638 8.88003 19.48C9.50733 19.8387 10.2174 20.0274 10.94 20.0274C11.6626 20.0274 12.3727 19.8387 13 19.48C13.392 19.2638 13.8324 19.1504 14.28 19.1504C14.7277 19.1504 15.1681 19.2638 15.56 19.48C16.1798 19.8499 16.8882 20.0453 17.61 20.0453C18.3318 20.0453 19.0402 19.8499 19.66 19.48C19.8366 19.3688 20.0287 19.2846 20.23 19.23C20.3631 19.2031 20.4893 19.1493 20.601 19.0721C20.7126 18.9948 20.8073 18.8956 20.8794 18.7805C20.9514 18.6654 20.9993 18.5368 21.02 18.4027C21.0408 18.2685 21.034 18.1315 21 18C20.9683 17.8647 20.9086 17.7374 20.8249 17.6265C20.7412 17.5155 20.6353 17.4232 20.5139 17.3554C20.3925 17.2877 20.2583 17.246 20.1199 17.233C19.9815 17.22 19.8419 17.236 19.71 17.28Z" fill="#CF3D01"/>
</svg>
